<?xml version="1.0" standalone="no"?>
<!DOCTYPE svg PUBLIC "-//W3C//DTD SVG 1.1//EN" "http://www.w3.org/Graphics/SVG/1.1/DTD/svg11.dtd" >
<svg>
<metadata>
Created by FontForge 20110222 at Mon Mar  7 11:50:54 2011
 By www-data
by Jens R. Ziehn
</metadata>
<defs>
<font id="NightmareBeforeChristmas" horiz-adv-x="405" >
  <font-face 
    font-family="Nightmare Before Christmas"
    font-weight="400"
    font-stretch="normal"
    units-per-em="1024"
    panose-1="2 11 6 3 5 3 2 2 2 4"
    ascent="819"
    descent="-205"
    x-height="781"
    cap-height="1001"
    bbox="-31.6429 -69 789 1066"
    underline-thickness="0"
    underline-position="0"
    unicode-range="U+0020-00FC"
  />
    <missing-glyph />
    <glyph glyph-name="space" unicode=" " horiz-adv-x="286" 
 />
    <glyph glyph-name="A" unicode="A" horiz-adv-x="568" 
d="M448 885l19 -50h-12.5t-39.5 4q2 -34 8.5 -90.5t16.5 -152.5q25 15 37 32q33 51 38.5 92l5.5 41l25 -9l-3 -73t-19 -93q-17 -21 -34 -27t-44 -18q8 -82 15 -155t20 -116q12 -45 42.5 -61t96.5 -49t103.5 5t35.5 49q-3 9 13.5 -12.5l16.5 -21.5l-1 1.5t-26 -28.5
q-26 -31 -64 -37.5t-91 -6.5q-54 0 -78.5 26.5t-49.5 34.5q-26 8 -77.5 7.5l-51.5 -0.5l-3 24l23 12.5t31 38.5q7 25 4.5 91t-7.5 132q-1 1 -5 43q-75 -32 -95 -46q-28 -21 -43 -41q-7 -50 -11 -81t-2 -64q2 -35 27 -50.5l25 -15.5l-4 -24l-13 10t-68 21q-56 9 -110.5 16.5
l-54.5 7.5l14 29l43 1t65 30q19 25 34 98.5t29 147.5q21 108 18.5 197.5t-3.5 132.5q-7 0 -3 0.5t-22 0.5q-26 -2 -57 -26.5l-31 -24.5l-13 61l5 3.5t64 32.5q58 27 70.5 13.5t81.5 -51.5q68 -38 88.5 -24.5zM269 540q56 9 117 29q-12 82 -26 160.5l-14 78.5h-21l-4.5 -16
t-13.5 -46q-10 -30 -19 -83.5t-19 -122.5z" />
    <glyph glyph-name="B" unicode="B" horiz-adv-x="585" 
d="M291 900q-24 -1 -38 6.5l-14 7.5l-41 41l38 13l12.5 -10.5t52.5 -4.5q39 4 69 11t97 -14q66 -21 76 -69.5t5 -86.5q-5 -39 -43 -80.5l-38 -41.5l21 -2.5t60 -35.5q38 -33 43 -97t-2 -127q-8 -64 -48 -118.5t-96 -94.5q-57 -42 -101 -60.5t-140 -21.5q-97 -3 -123 58
l-26 61l27 14q42 -30 59.5 -47t110.5 -28q70 -9 146.5 61t104.5 116q27 45 7 137.5t-48 120.5q-23 22 -106 10l14 -275l3 -3t-20 -31t-48 -51.5l-25 -23.5l-24 17l2.5 1t17.5 9t23.5 30.5t14.5 44.5q5 22 1.5 92.5t-7.5 162.5q-12 -5 -15 -5t-24 -12t-24 -35l-3 -23l-51 -6
v13v34q0 38 68 72q32 15 33 14.5t13 5.5q-4 81 -8.5 151t-5.5 100zM352 691q75 30 93 36q30 10 28.5 64.5t-41.5 108.5q-25 33 -41.5 28.5t-50.5 -0.5z" />
    <glyph glyph-name="C" unicode="C" 
d="M332 839l-19 11l8 28.5t-8 28.5q-17 0 -108.5 -33t-99.5 -148q-9 -114 11 -226t80 -161q59 -49 132 -85t124 -27q51 8 65.5 16l14.5 8l18 -19l-24 -21t-85 -22q-62 -3 -146.5 30t-137.5 85q-54 51 -96 131.5t-46 146.5q-4 65 5.5 135.5t46.5 115.5q71 87 172 120
q51 16 90 17.5t58 10.5q18 7 21 13l3 6l17 -17z" />
    <glyph glyph-name="D" unicode="D" horiz-adv-x="515" 
d="M218 871l-9 -10l-3 -5.5t-3 -23.5q0 -10 0.5 -91.5t2 -175t2.5 -170l1 -76.5v-11t8 -34q0 -2 0.5 -3t0.5 -2q52 27 101 68q55 45 73 150t11 212q-7 96 -79.5 131.5t-105.5 40.5zM109 232q6 4 11 9q17 15 22 33.5l5 18.5q-5 127 4 225l3 144t1 166q-6 38 -30 84
q-9 15 -22 27l-13 12l16 7l2.5 -1t8.5 -4v1v-0.5t1 -0.5q24 -10 54 -20q21 -7 16 -5q49 -4 90 -17q94 -31 161 -112q34 -43 43 -109t6 -126q-5 -61 -44.5 -136.5t-88.5 -123.5q-50 -48 -129 -79t-136 -28q-58 1 -79.5 21l-21.5 20l16 17l13 -7.5t61 -15.5q15 -2 30 0z" />
    <glyph glyph-name="E" unicode="E" 
d="M362 779l-17 -7l-7 23.5t-39 36.5q-33 12 -102 7.5l-69 -4.5l6 -165l168 -7v-109l-36 7l-3 14.5t-12 16.5q-9 0 -15 1l-6 1l-106 10l7 -376l34 -9.5t94 -36.5q60 -28 93.5 -34.5t78.5 1.5q45 6 57 26l12 20l24 -13l-19.5 -37.5t-76.5 -62.5t-136 11t-145 59
q-67 22 -96.5 29l-29.5 7l-17 23l1 3.5t16 13.5q14 9 21.5 27.5l7.5 18.5l1.5 80t3 178.5t2.5 184.5t0 98q-3 22 -29.5 34l-26.5 12l-29 30l396 29l-2.5 -3t2.5 -19q5 -18 -0.5 -68.5z" />
    <glyph glyph-name="F" unicode="F" horiz-adv-x="491" 
d="M445 738l-34 42l0.5 11.5t5.5 37.5q3 24 -23 44l-26 20l-165 -5l-8 -216l196 2l28 -18l-50 -83h-21l-28.5 17.5t-46.5 29.5q-20 11 -43.5 4l-23.5 -7l-1 -5t-7 -33q-3 -15 -4.5 -71t-2.5 -117.5t-0.5 -110.5l0.5 -49l61 -33v-20l-12.5 -2.5t-36.5 -5.5q-26 -4 -37.5 -19
t-44.5 -34q-33 -20 -69 -27.5l-36 -7.5l3.5 12.5t25.5 16.5q39 7 59 72q24 77 18.5 223.5t-11.5 271.5q-2 33 -7 83.5t-10 74.5q-8 31 -49 60l-41 29l-3 22l521 2l3.5 -8.5t-14.5 -22.5q-17 -14 -41.5 -97z" />
    <glyph glyph-name="G" unicode="G" horiz-adv-x="634" 
d="M470 967l-119 -175l-18 16l3.5 19t0.5 31t-77.5 -10.5t-104.5 -92.5q-31 -70 -39 -160.5t19 -156.5q25 -66 89.5 -135t119.5 -86q54 -17 74 -22l20 -5v262l-8.5 18.5t-21.5 27.5q-14 8 -25 16.5l-11 8.5l6 14l51 -22.5t84 -23.5q32 -2 59 0l27 2l5 -20l-31 -6.5
t-44 -23.5q-14 -18 -14 -20.5v-2.5l5 -260l-88 -5.5t-181 51.5q-185 110 -226 274q-20 81 -6 157t45 123q30 45 76 92.5t86 57.5q39 10 87.5 11.5t69.5 14.5q20 11 45 28l25 17z" />
    <glyph glyph-name="H" unicode="H" horiz-adv-x="695" 
d="M584 938l-31 -29.5t-31 -64.5q0 -36 5 -46.5l5 -10.5l16 -675l5 -26.5t36 -56.5t52 -46l21 -16l-21 -36l-59.5 61t-105.5 73q-47 12 -65 14l-18 2l5 26l20 9t32 48q4 13 4.5 62.5t0.5 116.5q-47 25 -111 45q-22 6 -79 33t-84 39q0 -91 2.5 -177.5t6.5 -98.5l40 -46
q12 -65 14 -65l-40 9.5t-80 -14.5q-42 -24 -72 -39.5l-30 -15.5l-12 25l45.5 39t54.5 82q5 22 9 117t4 205q-102 52 -115 76q-16 27 -11 80l5 53l32 -11l-1.5 -13t1.5 -38q2 -30 89 -65q-2 78 -5.5 141t-10.5 86q-19 57 -40.5 68t-45.5 23t-28.5 14l-4.5 2v41l254 -5l4 -44
l-24 -7.5t-31 -37.5t-8.5 -105.5t-1.5 -189.5q54 -23 142.5 -63t129.5 -55q-3 111 -9 216.5t-10 139.5q-8 62 -11.5 80.5t-45.5 33.5q-43 15 -44.5 20.5l-1.5 5.5l5 26l44.5 -19.5t95.5 -11.5t79.5 12z" />
    <glyph glyph-name="I" unicode="I" horiz-adv-x="299" 
d="M252 1001l18 -21l-28 -34t-45 -74q-9 -21 -9.5 -139t3 -251.5t8 -242l4.5 -108.5q0 -12 58 -63q22 -21 46.5 -38.5t28.5 -28.5l9 -22q6 -18 -46 9.5t-94 36.5q-43 9 -94 0l-51 -9l1 9.5t19 17.5q17 7 23.5 37.5t11.5 60.5q2 15 1 112t-3.5 207.5t-4.5 200l-2 89.5
l1.5 10.5t-7.5 53.5t-39 49l-30 6l-6 30l15 3t72 24q57 20 98.5 47.5z" />
    <glyph glyph-name="J" unicode="J" horiz-adv-x="627" 
d="M551 357l-39.5 -135.5t-165.5 -141.5q-127 -6 -156.5 29.5t-55.5 115.5q-27 79 -27.5 109.5t-27.5 51.5t-55 43.5l-28 22.5l18 30l19 -10t56 -12q36 -3 57 -1l21 2l6 -34l-19 -8t-17 -20q0 -13 33.5 -119.5t100.5 -117.5q105 -18 138.5 43.5t45.5 139.5q11 118 33.5 293
t-27.5 275q-19 39 -49.5 71l-30.5 32l19 19l45.5 -26t108.5 -44q62 -20 79 -23l17 -3l-7 -29l-33.5 -5.5t-42.5 -45.5q-10 -42 -8.5 -51.5l1.5 -9.5l-1 -68.5t-2.5 -151t-3 -151.5t-2.5 -70z" />
    <glyph glyph-name="K" unicode="K" horiz-adv-x="491" 
d="M39 138l-1.5 5.5t6.5 17.5t22 47l14 35q7 27 5 82t-2 82q-6 182 -8.5 244.5t-9.5 205.5q-1 21 -6 30l-5 9l-52 51l2 26l24.5 -1t77.5 4q51 3 64 7.5l13 4.5l24 -14l-19 -11t-31 -28q-13 -18 -27 -44t-12 -53q5 -117 15.5 -233.5t23.5 -249.5l4.5 6.5t11.5 18.5
q3 5 25.5 58t49 118t50.5 123.5t32 75.5q15 31 22 49t1 48q-6 29 -26 48l-20 19l1 27l31 -1t76 2q44 3 89.5 4.5l45.5 1.5l-1 -17l-11 -6.5t-32 -20.5q-50 -34 -64 -58q-23 -35 -76 -160q-24 -56 -44.5 -106.5t-47.5 -117.5q51 -61 89.5 -134t62.5 -92q35 -30 53 -64t51 -44
q33 -12 41 -11.5l8 0.5l-6 -39l-42 0.5t-80 24.5q-39 23 -35 21.5t-23 -1.5t-38.5 -2l-11.5 -2l1 31l7.5 5t10.5 32t-18.5 62.5t-46.5 74.5l-47 70q-24 -59 -39.5 -99.5l-15.5 -40.5l-4.5 -10.5t-6.5 -36.5q-3 -26 14 -35l17 -9l-7 -31l-21.5 3.5t-63.5 3.5
q-43 -1 -63.5 -3.5z" />
    <glyph glyph-name="L" unicode="L" horiz-adv-x="286" 
d="M85 193q1 25 0 104t-3 164.5t-3.5 152.5l-1.5 67l1 8.5t-7 44.5q-9 34 -37.5 39l-28.5 5l-5 24l14 2.5t68 20.5q54 16 95 41l41 25l16 -17l-26.5 -28.5t-41.5 -59.5q-8 -16 -9 -97t1 -179t6 -188t6 -124l40.5 -10t94.5 -34q89 -42 156 -30q40 6 51.5 24l11.5 18l18 -21
l-18 -34t-69 -56q-52 -23 -123.5 9.5t-131.5 53.5q-61 20 -90.5 23.5l-29.5 3.5l-13 31l4 4.5t11 10.5q3 1 3 2z" />
    <glyph glyph-name="M" unicode="M" horiz-adv-x="561" 
d="M578 873l-29 -7.5t-34 -33.5q-5 -27 -5.5 -39l-0.5 -12l-1 -69.5t0 -154.5t3.5 -159.5t10.5 -84.5q14 -22 27.5 -30l13.5 -8v-19h-193l3 25l27.5 5t39.5 36q6 18 7.5 123.5t0.5 216.5q-32 -41 -54 -62q-52 -51 -69 -101q-8 -24 -11.5 -66.5l-3.5 -42.5l-38 -32l-9 52.5
t-19 85.5q-11 33 -33 76t-53 70q-22 18 -26 22q-3 -98 -5 -224l-2 -126q15 0 63.5 -47t50.5 -59l2 -15l-4 -1.5t-19 1.5q-16 2 -25 4t-26 17q-39 32 -88 35q-26 1 -46.5 -4l-20.5 -5v35l22 11.5t31 22.5q3 5 5 76t3 154.5t1.5 152l0.5 68.5l-1 9t-4 30q-4 19 -20.5 24.5
l-16.5 5.5l-11 40l16 16q12 12 54.5 -20.5t71.5 -29.5l2 -14q6 -21 38 -109t50 -108q18 -21 22 -28l4 -7l63 92t77 122t16 34.5t7 15.5q-1 21 -0.5 28t-2.5 28q-4 22 -25 38q-17 12 -23 14l-6 2v31q0 18 79.5 -25.5t107.5 -52.5q3 -9 4 -16z" />
    <glyph glyph-name="N" unicode="N" horiz-adv-x="437" 
d="M173 840l3 -4t2 -15q-2 -11 0 -39.5l2 -28.5l2.5 -7.5t13.5 -21.5t19.5 -40.5t26.5 -56.5q16 -31 38 -63l22 -32l0.5 47.5t1.5 107t1 113t-1 65.5q-8 44 -31 88q-10 17 -23.5 29.5l-13.5 12.5l16 8l16.5 -7.5t53.5 -19.5t55 -15l18 -3l2 -23l-35 -35l-3.5 -5.5
t-3.5 -25.5q0 -11 1 -97.5t2 -186.5t2.5 -181.5l1.5 -81.5v-12t8 -36q7 -25 27 -34l20 -9v-23l-181 -4v14l6 1.5t24 19.5q18 17 23.5 36.5l5.5 19.5l-4 105l-2 4.5t-6 20.5q-5 15 -74 123l-69 108l-0.5 -1.5t-1.5 -10.5q-1 -5 0 -64t3 -127.5t4 -124.5l2 -56l2.5 -6.5
t13.5 -30.5q11 -25 31.5 -41.5l20.5 -16.5l4 -23l-27 2t-64 2q-38 0 -69.5 -1l-31.5 -1l-2 15l7.5 4.5t23.5 15.5q15 11 20.5 32.5l5.5 21.5l2 3.5t7 21.5q2 8 1 79t-2.5 153t-3 149l-1.5 67l-0.5 8.5t-8.5 28.5t-25.5 24.5l-17.5 4.5l-6 25l21 2t57 10t52 13.5z" />
    <glyph glyph-name="O" unicode="O" horiz-adv-x="500" 
d="M229 941q18 5 30 0q5 -3 76 -47t92 -117q21 -75 35.5 -191.5t-11.5 -192.5q-27 -77 -73 -143t-96 -80q-22 -8 -40 -12q-19 4 -40 12q-51 14 -96.5 80t-72.5 143q-26 76 -11.5 192.5t35.5 191.5q20 73 93.5 117t78.5 47zM210 213q32 -2 64 0q36 3 64 69.5t48 160.5
q20 93 -1 158t-36 135q-16 69 -59 109l-43 40q-6 3 -10 0l-43.5 -40t-58.5 -109q-16 -70 -37 -135t-1 -158q20 -94 54.5 -161t58.5 -69z" />
    <glyph glyph-name="P" unicode="P" horiz-adv-x="443" 
d="M92 790l-1.5 34t-10.5 49q-9 14 -43 30l-34 16v42l17 -8t56 -14q76 5 125 7q5 1 8.5 2.5l3.5 1.5v-3h6h6q33 0 93 -15t79 -51q18 -36 19 -86.5t-26 -93.5q-62 -98 -136 -116q-34 -9 -62.5 -12.5t-40.5 -37.5q7 -133 17 -191q12 -67 46.5 -79l34.5 -12l4 -40l-2.5 -2
t-28.5 10q-26 11 -121.5 15l-95.5 4v23l26.5 13t50.5 49q11 17 14 91.5t2 157.5t-3.5 149.5zM145 651q38 -20 71 4q79 59 86 131q7 62 -23 83q-45 28 -91 4q-14 -7 -40 -25q-5 -28 -5.5 -81.5t2.5 -115.5z" />
    <glyph glyph-name="Q" unicode="Q" horiz-adv-x="501" 
d="M224 957q19 5 30 0q6 -3 79.5 -49t94.5 -121t36 -195.5t-12 -198.5q-28 -86 -78 -151q36 -45 55 -61q41 -38 62 -79t60 -57q39 -15 48 -15.5l9 -0.5l-3 -33l-50 4.5t-94 34.5q-45 31 -41.5 29t-27.5 0q-32 3 -46 1l-14 -2l2 37l9.5 5.5t12.5 35.5q2 19 -18 59
q-30 -29 -59 -37q-12 -3 -22 -6.5t-19 -5.5q-11 2 -21 5.5t-21 6.5q-51 15 -98.5 83t-74.5 147q-27 78 -12 198.5t36 195.5t96.5 121t80.5 49zM90 550q18 -24 101.5 -98.5t139.5 -143.5q9 27 24.5 61.5t25.5 99.5q10 64 -2.5 136.5t-23.5 139.5q-12 66 -62.5 100.5
l-50.5 34.5q-5 3 -8 0l-37 -30t-63 -92q-38 -89 -44 -208zM311 256q-31 39 -70 69l-141 108q14 -81 52 -143t62 -65q23 -2 47 0q35 3 50 31z" />
    <glyph glyph-name="R" unicode="R" horiz-adv-x="463" 
d="M98 770l-2 32t-10 46q-9 13 -40 28l-31 15v39l15 -7.5t53 -12.5q27 1 66 3t66 3q5 1 8.5 2.5l3.5 1.5v-4q4 1 11 1q31 0 87 -14.5t74 -47.5q45 -85 -7 -168q-47 -73 -105 -101q9 -32 47.5 -148.5t74.5 -149.5q40 -37 68.5 -80t67.5 -58q37 -15 72.5 -20.5l35.5 -5.5
l-3 -31l-75 9.5t-119 37.5q-44 30 -44.5 39.5t-30.5 12.5q-31 3 -44.5 1l-13.5 -2l1 36l9 5t13 36q3 30 -23 87t-52 105l-61 108q-31 -9 -41 -37q8 -134 16 -179q10 -62 43 -73l33 -11l3 -38l-2.5 -2t-26.5 9t-121.5 14.5l-97.5 3.5v22l25 12t47 45q10 16 13 86t2.5 148
t-3 140zM163 640q37 -18 66 4q74 54 81 123q7 57 -22 77q-40 25 -84 4q-12 -6 -38 -24q-5 -27 -5 -76.5t2 -107.5z" />
    <glyph glyph-name="S" unicode="S" horiz-adv-x="424" 
d="M407 870l-30 -43l-7.5 2.5l-19.5 6.5q-9 -16 -37.5 -68.5t-50.5 -94.5q24 -18 51 -35t45 -33q28 -27 37 -74.5t1 -94.5q-14 -75 -107 -118q-39 -19 -105 -23.5t-94 -12.5q-29 -9 -25.5 -30.5l3.5 -21.5l-41 11l-5 6t10 35q24 47 118 71q47 12 78.5 12.5t60.5 31.5
q28 30 23 72t-15 79q-9 32 -62 77q-34 -64 -49 -110q-11 -31 -7 -62l4 -31l-17 -16l-3.5 7t-15.5 25t-43 53l-31 35l6 19l21.5 5.5t52.5 29.5q13 11 48 71q-38 27 -68 39q-37 14 -48 46t-14 69q-5 36 18 53t80 40q57 22 147.5 -3zM227 701q23 46 43 89.5t27 59.5
q-74 15 -106 -4q-39 -25 -16.5 -65t41.5 -66q4 -8 11 -14z" />
    <glyph glyph-name="T" unicode="T" horiz-adv-x="158" 
d="M332 897l2 23q-139 39 -182 15q-35 -19 -40.5 -46.5l-5.5 -27.5l-98 121l44 15.5t93 21.5q49 4 110.5 -13.5t106.5 -31.5q44 -15 171 -55.5t159 -28.5t45.5 56l13.5 44h20l-12 -53t-47 -69q-36 -17 -121.5 -8.5t-187.5 35.5l-3 -26l10 -565v-4.5v-37.5q0 -34 22.5 -44
t41.5 -34q18 -24 38.5 -24h20.5l4 -18l-34 -6t-57 3q-24 7 -34 24t-39 33q-29 15 -52.5 11l-23.5 -4l-18 10l2 3.5t16 14.5q12 10 18 20.5l6 10.5z" />
    <glyph glyph-name="U" unicode="U" horiz-adv-x="484" 
d="M189 903v-38l-16 -5t-31 -20q-16 -17 -19 -194t15 -270q18 -94 108.5 -110.5t108.5 93.5q16 109 9 295t-10 215t-31 36l-28 7l-9 38l14 -3.5t59 -0.5q44 3 73 20.5l29 17.5l5 -38l-13.5 -11.5t-25.5 -39.5q-7 -15 -7.5 -106t0 -198.5t-0.5 -200.5t-9 -112
q-16 -39 -62 -72t-86 -34q-40 -2 -105.5 38t-80.5 76q-8 17 -12 91.5t-6.5 162t-5 166t-6.5 104.5q-9 51 -31.5 51h-22.5v47l16.5 -2t67.5 -11q51 -10 82 -1z" />
    <glyph glyph-name="V" unicode="V" horiz-adv-x="470" 
d="M326 207l-7.5 -1.5t-46.5 -2.5q-41 -3 -64 -6l-23 -3l-1 28l17.5 9.5t20.5 33.5q2 23 0 32.5l-2 9.5l-29.5 160t-44.5 229q-16 68 -24.5 97.5t-14.5 45.5q-10 21 -49 49q-18 11 -26 16.5l-8 5.5l2 16l34.5 -1t76.5 0q40 0 70 3l30 3l-4 -26l-22.5 -18.5t-34.5 -45.5
t-9 -43.5t11 -45.5q3 -15 15 -70t25 -116t24 -111t14 -54q4 -10 5 -11.5l1 -1.5q33 105 65 211t60 214q6 25 -0.5 52.5t-13.5 47.5q-7 19 -21.5 34l-14.5 15l24 7l7 -7.5t52 -25.5q44 -18 66 -23l22 -5l-4 -25l-56 -34l-6 -7t-10 -26q-36 -130 -49 -181.5t-45 -181.5
q-9 -39 -11.5 -69t-9.5 -47q-8 -19 -8.5 -27.5l-0.5 -8.5l6 -31t11 -42q5 -12 3 -16.5z" />
    <glyph glyph-name="W" unicode="W" horiz-adv-x="580" 
d="M266 887l19.5 -6.5t61.5 -15.5t67 -11.5l25 -2.5l-4 -28l-19.5 -5.5t-25.5 -28.5t-5 -32.5l1 -9.5l18 -171t32 -276q15 110 42.5 307.5t30.5 215.5q3 21 0.5 27l-2.5 6l-33 37l5 25l19 3t61 17q41 12 60 20l19 8l16 -8l-16.5 -13.5t-28.5 -31.5q-34 -48 -45 -95
q-4 -13 -11 -69.5t-13.5 -119.5t-11.5 -113.5l-5 -50.5q-6 -120 -29 -256l3 -21t21 -39q17 -18 23.5 -20l6.5 -2l-2 -15l-9 1v-9l-37 1t-79 1q-43 0 -73 -2.5l-30 -2.5l1 26l20.5 19t29.5 48l11.5 34.5l2.5 7.5l-4.5 44.5t-9.5 99.5t-10.5 103t-6.5 54q-3 10 -3.5 12l-0.5 2
l-62.5 -123.5t-65.5 -141.5q-4 -18 -2 -35l4.5 -17t28.5 -36q23 -20 30.5 -21.5l7.5 -1.5l2 -17l-209 5l-3 26l21 10.5t27 38.5q5 28 3.5 41.5l-1.5 13.5l-7.5 63t-17 141t-18 147t-9.5 81q-3 22 -7 28.5l-4 6.5l-46 40l-1 26l19.5 3.5t60.5 18.5q40 14 58 22l18 8l21 -9
l-14.5 -14t-22.5 -34q-22 -55 -22 -101q0 -27 23 -169l23 -142q28 51 45 80.5t46 80.5q49 88 32 163.5l-17 75.5l-11 22t-14 34t-0.5 17z" />
    <glyph glyph-name="X" unicode="X" horiz-adv-x="574" 
d="M457 183q-20 37 -69 129t-75 164q-46 -125 -126 -287l-3.5 -22t13.5 -35q17 -18 24.5 -15t-1.5 -17l-213 -22q-16 25 -13 30q13 17 41.5 26.5t48.5 39.5l56.5 123t118.5 254q-36 80 -83.5 190.5t-58.5 125.5q-13 13 -35 13t-30 31l-10 33l184 3l16 -28l-30 -31l1 -9.5
t9 -25.5q6 -18 31.5 -67t80.5 -161q101 212 105 223q15 30 -8 49l24 44q62 3 130.5 13t96.5 3l-23 -36l-125 -53q-28 -13 -76.5 -115.5t-94.5 -210.5q49 -106 109.5 -228l60.5 -122l7 -14t31 -45q24 -34 43.5 -31.5l19.5 2.5l-17 -29l-194 19l-8 17h7.5t24.5 15
q16 14 21.5 16.5t-11.5 40.5z" />
    <glyph glyph-name="Y" unicode="Y" horiz-adv-x="456" 
d="M368 810q15 32 10 34.5t-18 16.5q-15 12 -21 12.5l-6 0.5l7 15l172 15l15 -24l-18.5 -4.5t-35.5 -21.5t-24 -34.5l-7 -17.5l-149 -335l-30 -66q-36 -78 -58.5 -123.5t-28.5 -60.5q-7 -15 -7 -23v-8l24 -27l-10 -19l-165 3l6 22q37 22 54 40q11 12 62 118.5t81 178.5
q-53 114 -100.5 222l-47.5 108q-18 25 -41.5 33.5t-33.5 25.5q-3 3 10 26l174 -28q8 -19 1.5 -16.5t-21.5 -11.5q-14 -14 -11 -32.5l3 -18.5q69 -145 107 -251q21 62 56 140t51 111z" />
    <glyph glyph-name="Z" unicode="Z" horiz-adv-x="586" 
d="M103 825l-90 116l43 5t79 9q35 3 85.5 -9.5t80.5 -22.5q29 -12 136.5 -42.5t139.5 -18.5q32 11 42.5 38l10.5 27l30 -10l-19 -39.5t-38 -47.5q-20 -10 -42 -18t-50 -20q-37 -27 -75.5 -102t-86.5 -162t-75 -138.5t-48 -84.5q-8 -18 -5.5 -25.5t26.5 -19.5
q10 -15 60.5 -26.5t71.5 -18.5q30 -11 117 -40t111 -20q24 8 37.5 36l13.5 28h15l-14 -37.5t-42 -49.5q-29 -13 -96.5 -5.5t-143.5 30.5q-136 41 -170 23q-28 -13 -59 -33l-31 -20l-75 106l5.5 7t23.5 13q17 5 35 27t35 45q72 98 150 238.5t116 255.5q2 5 2 13
q-60 11 -94 23q-137 40 -170 23q-28 -14 -35 -33.5zM50 126z" />
    <glyph glyph-name="a" unicode="a" horiz-adv-x="398" 
d="M286 813l11 -41h-8t-25 3q2 -21 6.5 -75.5t11.5 -114.5q16 9 22 20q21 31 24.5 57l3.5 26l16 -6l0.5 -42.5t-14.5 -60.5q-12 -13 -49 -29q12 -118 20 -149q18 -67 89 -102q41 -21 64.5 3.5t22.5 30.5q-2 6 8 -7.5l10 -13.5l-0.5 0.5t-15.5 -17.5q-24 -28 -97 -28
q-34 0 -61.5 19.5t-42.5 25.5q-16 4 -48 4h-32l-2 15l14 7.5t20 24.5q4 15 2.5 56t-4.5 83q-2 9 -3 26q-41 -15 -60 -28q-16 -12 -27 -26q-8 -64 -8 -91q1 -32 16.5 -36l15.5 -4l-2 -23l-8 6.5t-43 13.5q-35 6 -78 13.5l-43 7.5l8 25l18.5 2t32.5 20q12 15 24 60.5t23 90.5
q16 66 16.5 148t-0.5 109q-6 1 -16 1q-29 -2 -41.5 -17l-12.5 -15l-9 38l4 7t41 25q36 17 44 8.5t50 -32.5q43 -24 77.5 -21zM151 542l32.5 7.5t40.5 11.5q-8 51 -17 105l-9 54h-13l-1.5 -12t-9.5 -37q-4 -12 -10.5 -49t-12.5 -80z" />
    <glyph glyph-name="b" unicode="b" horiz-adv-x="391" 
d="M115 811q-15 -1 -24 4l-9 5l-25 25l23 8l5.5 -5t28.5 -10q22 -5 70.5 9t90.5 2q41 -13 47.5 -43.5t3.5 -53.5q-3 -24 -27 -50.5l-24 -26.5l13.5 -1.5t37.5 -21.5q24 -21 27 -61t-1 -79q-6 -40 -40 -77.5t-69 -62.5q-35 -26 -62.5 -38t-87.5 -13q-61 -2 -77.5 36l-16.5 38
l18 9l4 -8.5l12 -25.5q8 -18 26.5 -15.5t63.5 2.5q44 0 91.5 40.5t65.5 69.5q17 28 4 85.5t-30 75.5q-15 14 -66 6l9 -171l1.5 -2t-12.5 -19q-15 -18 -46.5 -32.5l-31.5 -14.5l-15 11l1.5 0.5t10.5 5.5q14 6 24 47q2 8 0.5 54.5t-3.5 104.5q-15 -6 -25 -11
q-22 -13 -19.5 -24.5l2.5 -11.5l-32 -4v8.5v21.5q0 12 4.5 20t38.5 24q18 9 28 13q-3 50 -5.5 94t-2.5 63zM185 681q25 10 58 22q19 6 18 40t-26 68q-16 20 -33.5 18.5t-23.5 -1.5z" />
    <glyph glyph-name="c" unicode="c" horiz-adv-x="295" 
d="M158 768q-72 -25 -78 -91q-4 -48 0.5 -100t28.5 -95q13 -23 36 -39t46 -28q50 -27 83 -22q32 4 42 12l5 6l23 -22q-33 -48 -95.5 -35.5t-103.5 34.5q-27 15 -45 32q-87 79 -91 188q-2 80 25 127q51 79 162 95q37 2 47 11l2 16l27 -27l-65 -97l-24 14q8 24 8 29
q-15 -2 -33 -8z" />
    <glyph glyph-name="d" unicode="d" horiz-adv-x="384" 
d="M285 587q2 38 1 87q-3 44 -31 74q-31 27 -77 37q-5 1 -5 -15q0 -84 1.5 -168t2.5 -168q-1 -3 2 -18q21 12 51 34q29 24 40 62.5t15 74.5zM90 346q-56 3 -79 36l24 25q7 -9 21 -14q25 -8 43 -6q19 19 19 35q-4 72 3 143v14v15q3 79 3 159q-2 56 -39 86l-12 10l27 13
q10 -5 20 -8.5t20 -6.5q18 -7 37.5 -9t38.5 -8q78 -27 118 -88q27 -49 26 -132q-6 -150 -136 -225q-72 -41 -134 -39z" />
    <glyph glyph-name="e" unicode="e" horiz-adv-x="347" 
d="M299 758l-12 -5l-5 16.5t-26 25.5q-23 8 -71 5l-48 -3l5 -114l116 -5v-89l-25 5l-3 8.5t-6 16.5q-5 8 -10.5 9.5l-5.5 1.5l-73 -6l4 -246l24 -7t65 -25q69 -32 119 -23q30 5 39 18.5l9 13.5l16 -9l-14 -26t-53 -43q-39 -15 -93.5 9t-99.5 39q-47 15 -78.5 20l-31.5 5
l-11 16l0.5 2.5t10.5 9.5q10 6 15.5 19l5.5 13l1 55t2 123.5t1.5 127.5t-0.5 67q-2 15 -20 23.5l-18 8.5l-21 21l296 20l-1.5 -2t1.5 -14t-0.5 -47z" />
    <glyph glyph-name="f" unicode="f" horiz-adv-x="376" 
d="M304 697l-20 14v7t3 23q2 15 -14 26.5l-16 11.5l-108 -3l-5 -107l127 2l17 -11l-34 -76h-12l-15 23.5t-27 30.5t-31 3l-19 -4l-0.5 -3t-3.5 -20q-4 -18 -4 -114v-96l36 -19v-13l-11 -1.5t-26 -3.5q-15 -3 -23 -13.5t-28 -21.5q-20 -12 -46 -14.5l-26 -2.5l2 7t15 10
q23 4 35 43q14 46 11 134.5t-7 163.5q-2 44 -10 84q-5 18 -29.5 35.5l-24.5 17.5l-2 25l342 1l2 -5t-8 -13q-11 -9 -25.5 -65z" />
    <glyph glyph-name="g" unicode="g" horiz-adv-x="394" 
d="M99 690q-26 -87 -2 -152q16 -39 49 -76t75 -49q13 -5 34 -10v138q-5 13 -13 20q-10 6 -28 20l11 24q48 -21 69 -27t73 -1l7 -31q-44 -5 -54 -23l2 -159q-85 -16 -157 19q-141 71 -156 204q-9 82 29 141q19 27 45.5 56t61.5 37q17 3 34 4.5t35 4.5q11 2 14 4q12 6 23.5 14
t23.5 16l21 -19l-80 -119l-24 21q5 20 5 25q-66 -4 -90 -61q-6 -14 -8 -21z" />
    <glyph glyph-name="h" unicode="h" horiz-adv-x="428" 
d="M355 840l-17 -16.5t-17 -34.5q0 -20 3 -26l3 -6l8 -374l2.5 -14.5t20.5 -31.5q17 -18 28.5 -26.5l11.5 -8.5l-11 -20l-42 34.5t-67 40.5q-27 6 -36.5 7.5l-9.5 1.5l2 14l11.5 5t17.5 27q4 15 3 99q-26 13 -61 25q-27 7 -56 21q0 -119 5 -134l22 -25q6 -37 8 -37
l-39.5 5.5t-62.5 -7.5q-23 -14 -39 -22l-16 -8l-8 13l25 21.5t31 45.5q3 12 5 65t2 113q-57 29 -63 42q-10 15 -7 44.5l3 29.5l18 -6l-1 -7t1 -21q1 -17 49 -36q-2 105 -9 126q-11 31 -22.5 37t-24.5 13q-15 6 -17 7.5l-2 1.5v22l175 -2l3 -25l-13 -1.5t-18 -22.5
q-3 -12 -4 -66t-1 -117q30 -12 61.5 -24.5t54.5 -21.5q-3 61 -5.5 119.5t-4.5 77.5q-5 34 -6.5 44t-25.5 19t-25 12l-1 3l3 14l24.5 -11t53.5 -6q27 3 52 5.5z" />
    <glyph glyph-name="i" unicode="i" horiz-adv-x="193" 
d="M175 839l12 -12l-20 -21.5t-32 -45.5q-7 -13 -7 -73.5t2 -128.5t5.5 -122.5l3.5 -54.5l11.5 -12.5t30.5 -26.5q15 -12 33 -23.5t21 -17.5l6 -14q4 -12 -33 5.5t-67 23.5q-31 5 -67.5 -0.5l-36.5 -5.5l1 6t13 11q16 5 25 61q3 18 -1.5 157.5l-4.5 139.5l1 6.5t-5 33.5
q-6 26 -28 29.5l-22 3.5l-5 19l11 2t52 14t71 29z" />
    <glyph glyph-name="j" unicode="j" horiz-adv-x="419" 
d="M342 447q-12 -48 -37.5 -93.5t-78.5 -55.5q-30 -3 -61.5 -0.5t-52.5 25.5q-16 20 -24 46t-14 50q-3 9 -4.5 17.5t-3.5 17.5q-4 16 -37 43q-29 23 -31 25l21 34q31 -22 85 -17q4 0 16 2l6 -39q-2 -1 -12 -4t-10 -6q6 -32 18.5 -66t37.5 -55q34 -21 73 3q28 25 33 68t10 79
q7 57 13.5 118t-5.5 119q-12 47 -63 95l25 24q64 -40 142 -58q6 -1 18 -1l-8 -37q-29 0 -40 -15q-14 -28 -7 -37q-2 -63 -2.5 -125t-2.5 -124q0 -11 -4 -33z" />
    <glyph glyph-name="k" unicode="k" horiz-adv-x="347" 
d="M36 213l-0.5 4t5.5 13q5 9 15.5 34l10.5 25q5 20 3.5 60t-1.5 60q-4 134 -6 180t-7 151q-1 15 -4.5 21.5l-3.5 6.5l-37 38l1 19l17.5 -1t56.5 3q38 3 55 6l17 3l17 -10l-14 -8.5t-23 -20.5q-9 -13 -19 -32t-9 -39q3 -87 10.5 -174.5t17.5 -184.5l0.5 1t5.5 9t57.5 136
t64.5 152q21 48 17 71q-5 21 -19.5 35l-14.5 14l1 20l22.5 -0.5t55.5 1.5t74 3l41 1l-1 -12l-8.5 -5t-23.5 -15q-35 -24 -47 -42q-23 -42 -55 -118q-18 -42 -30.5 -73t-31.5 -80q37 -45 65.5 -98.5t46.5 -67.5q25 -22 38.5 -46t37.5 -33q24 -8 30 -8h6l-10 -39l-31.5 0.5
t-58.5 17.5q-28 17 -25.5 16t-16.5 -1q-21 0 -29 -2l-8 -2v24l5.5 3.5t8.5 21.5q2 20 -14 46t-35 55l-34 52q-17 -44 -28.5 -74l-11.5 -30l-3.5 -7.5t-4.5 -26.5q-3 -18 9.5 -24.5l12.5 -6.5l-5 -23l-31 3t-62 2q-32 0 -47 -2z" />
    <glyph glyph-name="l" unicode="l" horiz-adv-x="241" 
d="M106 314q0 19 -1 79t-2.5 125t-2.5 116l-1 51l1 6.5t-5 33.5q-7 27 -29 30.5l-22 3.5l-4 18l11 2t52 15q29 13 69.5 30l40.5 17l12 -13l-20 -21.5t-32 -44.5q-6 -12 -7 -74t1 -136.5t4 -143t24 -94.5q-20 1 147 -52q30 4 37.5 39t49.5 33l-18 -89q-15 -32 -32.5 -31.5
t-116.5 24.5t-170 31v32l2.5 3.5t8.5 7.5q2 1 3 2z" />
    <glyph glyph-name="m" unicode="m" horiz-adv-x="474" 
d="M442 780l-19.5 -9.5t-22.5 -26.5q-3 -18 -3.5 -26l-0.5 -8l-1 -46.5t-0.5 -103.5t2.5 -107t7 -57q9 -15 18.5 -20l9.5 -5v-13h-159l2 17l18 3.5t27 24.5q3 11 4 81.5t1 145.5q-15 -20 -36 -42q-35 -32 -46 -67q-6 -16 -8.5 -44.5l-2.5 -28.5l-25 -21l-6 34.5t-13 57.5
q-7 21 -21.5 50.5t-35.5 47.5q-22 16 -18 14q-2 -66 -3.5 -150l-1.5 -84l5.5 -1t14.5 -7t11.5 -14t14.5 -26t21.5 -20l9.5 -2l1 -11l-2.5 -1t-12.5 1q-22 3 -34 14q-25 20 -70 24q-17 0 -31 -3l-14 -3v23l15 7.5t21 15.5q2 3 3.5 50.5t2 103.5t1 102l0.5 46l-0.5 6t-3.5 20
q-3 12 -19 16l-16 4l-7 27l10 10l11.5 -3t27.5 -12q16 -10 47.5 -9.5l31.5 0.5l1 -10q4 -13 25.5 -73t33.5 -72q12 -15 15 -19l3 -4l33 52t48 82q4 9 8.5 18t7.5 16q-2 36 -2 37q-4 24 -5.5 25.5t-12.5 10.5q-11 7 -15 8.5l-4 1.5v30l18 -0.5t43 -13.5q12 -5 23 -17t28 -17
l43 -15q3 -6 3.5 -10.5z" />
    <glyph glyph-name="n" unicode="n" horiz-adv-x="371" 
d="M166 854l2 -3t1 -12t0.5 -31.5l1.5 -22.5l2 -6.5t11 -17.5t16 -32.5t21 -45.5q13 -25 30.5 -50.5l17.5 -25.5l2 64t0 83q-6 35 -25 72q-8 13 -19 23l-11 10l13 6l13 -6t43 -15q30 -10 51 -12.5l21 -2.5l2 -18l-29 -28l-2.5 -5t-2.5 -20q0 -9 0.5 -60t1.5 -109t2 -104.5
l1 -46.5l0.5 -9.5t6.5 -28.5q6 -21 22 -28l16 -7v-19l-159 -3v12l5 1t20 15t19 29.5l4 15.5l-3 85l-2 3.5t-5 16.5q-4 12 -59.5 98.5l-55.5 86.5l-0.5 -1.5t-0.5 -8.5q-2 -7 2 -133.5l4 -126.5l2.5 -5t11.5 -25q8 -21 24.5 -33.5l16.5 -12.5l4 -19l-22 2t-51 2
q-30 0 -67.5 -1l-37.5 -1l-1 12l6 3.5t19 12.5q12 9 16.5 26l4.5 17l1.5 3t5.5 17q1 6 0.5 57.5t-2 110t-2.5 106.5l-1 48l-0.5 7t-6.5 23t-20.5 20l-14.5 4l-5 19l17 2t46 8t53.5 10.5z" />
    <glyph glyph-name="o" unicode="o" horiz-adv-x="330" 
d="M158 823q11 2 19 0q3 -3 48.5 -31t59.5 -75q13 -48 22.5 -123t-7.5 -123q-18 -49 -47 -91.5t-61 -51.5q-11 -4 -26 -7q-16 4 -25 7q-33 9 -62.5 51.5t-45.5 91.5q-18 48 -8.5 123t23.5 123q12 47 59.5 75.5t50.5 30.5zM152 375q13 -2 29 0q15 1 28 40.5t22 96.5
q9 55 -0.5 93.5t-16.5 80.5q-7 41 -26 65l-19 24q-4 1 -5 0l-19.5 -24t-25.5 -65q-8 -42 -17 -80.5t0 -93.5q9 -57 21 -96.5t29 -40.5z" />
    <glyph glyph-name="p" unicode="p" horiz-adv-x="313" 
d="M66 732l-1 24t-7 34t-30 21.5l-24 11.5v29l11.5 -6t39.5 -9q21 0 50 2t50 2q3 1 5.5 2l2.5 1v-2h5h4q23 0 65 -10.5t56 -35.5q32 -66 -6 -127q-43 -69 -95 -81q-24 -6 -44 -9t-28 -27q4 -93 12 -134q8 -47 32.5 -55l24.5 -8l2 -28l-1.5 -2t-19.5 7q-18 8 -91 11l-73 3v16
l18.5 9.5t35.5 33.5q7 12 9 64.5t1.5 110.5t-2.5 105zM116 634q27 -13 49 3q55 41 61 92q4 45 -16 58q-31 20 -64 3q-14 -7 -28 -18q-6 -35 -2 -138z" />
    <glyph glyph-name="q" unicode="q" horiz-adv-x="330" 
d="M148 856q10 2 19 0q3 -2 48 -30.5t59 -74.5q12 -47 21.5 -121.5t-6.5 -122.5q-20 -55 -48 -93q17 -23 33 -38q25 -23 38.5 -49t37.5 -35q24 -10 29.5 -10h5.5l-2 -19l-31 2.5t-58 20.5q-28 18 -26 17t-16 1q-20 1 -29 0l-9 -1l2 23l5.5 3t7.5 23q2 12 -11 36
q-20 -18 -36 -22q-18 -6 -26 -7q-7 0 -25 7q-33 9 -62 51t-45 90q-18 48 -8.5 122.5t23.5 121.5q12 46 59 74.5t50 30.5zM89 606q10 -15 44 -58.5t68 -85.5q10 29 19 85q9 55 -0.5 93.5t-15.5 80.5q-8 40 -27 63.5l-19 23.5q-2 3 -4 0l-19.5 -23.5t-25.5 -63.5
q-6 -30 -12.5 -56.5t-7.5 -58.5zM189 430q-14 17 -31 35l-63 69q19 -120 47 -122q14 -2 28 0q9 1 19 18z" />
    <glyph glyph-name="r" unicode="r" horiz-adv-x="319" 
d="M46 726l-1.5 23t-6.5 33q-6 9 -29 20l-23 11v28l11 -6t38 -9q39 2 96 5q3 0 5.5 1l2.5 1v-2h4h4q22 0 62.5 -10t53.5 -34q32 -63 -5 -121q-34 -53 -76 -73q6 -23 34 -107t54 -107q29 -27 49.5 -58.5t48.5 -41.5q27 -10 52.5 -14l25.5 -4l-2 -23l-54.5 7t-85.5 28
q-31 20 -32 27t-22 9q-23 2 -32.5 0.5l-9.5 -1.5l1 26l6.5 3.5t9.5 26.5q2 21 -17 62t-37 76l-44 78q-23 -8 -30 -27q7 -104 12 -128q7 -45 30.5 -53l23.5 -8l3 -27l-1.5 -2t-19.5 7q-18 7 -88 10l-70 3v15l18 9t34 33q15 23 11 168.5zM93 632q27 -13 48 2q52 40 58 89
q4 43 -16 56q-29 18 -60 3q-12 -6 -28 -18q-6 -34 -2 -132z" />
    <glyph glyph-name="s" unicode="s" horiz-adv-x="300" 
d="M277 809l-25 -35l-6 2l-15 5q-7 -12 -30 -55t-41 -76q19 -14 40.5 -28t36.5 -26q47 -45 31 -136q-11 -60 -86 -95q-31 -15 -84 -18.5t-76 -9.5q-23 -7 -20.5 -24l2.5 -17l-32 9l-3 5t8 27q18 36 93 57q38 9 63 9.5t49 25.5q23 24 19 57t-12 63q-7 25 -51 63
q-27 -52 -39 -89q-9 -25 -5.5 -50l3.5 -25l-14 -12l-3 5.5t-12 20.5q-10 14 -34.5 42l-24.5 28l4 15l17.5 4t41.5 25q13 10 39 57q-29 20 -54 31q-43 16 -50 92q-6 42 79 75q45 18 118 -2zM132 673q18 37 34.5 71.5t22.5 47.5q-61 13 -86 -3q-31 -20 -13 -52.5t33 -53.5
q13 -13 9 -10z" />
    <glyph glyph-name="t" unicode="t" 
d="M228 768l2 14q-85 23 -110 9q-21 -12 -24.5 -28.5l-3.5 -16.5l-77 89l35.5 4.5t65.5 7.5q29 3 73 -8t71 -19q26 -9 102.5 -33.5t96.5 -17.5q18 7 26.5 31l8.5 24h12l-7 -32t-28 -42t-73.5 -5t-112.5 21l-2 -15l6 -341v-2.5v-22.5q0 -28 23 -58q11 -14 23.5 -14h12.5
l2 -11l-20.5 -3t-34.5 1q-14 5 -19 21t-23 25q-18 10 -32 7l-14 -3l-10 7l1 2t9 7q8 6 11.5 12.5l3.5 6.5z" />
    <glyph glyph-name="u" unicode="u" horiz-adv-x="242" 
d="M99 742v-19l-8 -2.5t-15 -10.5q-9 -8 -9 -101.5t7 -125.5q6 -33 37 -39t42 30t6.5 136t-6.5 115q-2 14 -15.5 17.5l-13.5 3.5l-4 19l6.5 -2.5t29.5 -0.5q21 2 46 10.5l25 8.5l2 -19l-6.5 -5.5t-12.5 -19.5q-7 -14 -4 -149.5t-5 -153.5q-8 -19 -34 -30.5t-45 -11.5
q-21 -1 -54 14t-40 33q-9 17 -10 124t-5 133q-5 24 -15.5 24.5l-10.5 0.5v23l8 -1t33 -6q24 -5 47.5 0z" />
    <glyph glyph-name="v" unicode="v" horiz-adv-x="296" 
d="M112 518q-9 51 -19 103.5t-22 104.5q-13 47 -33 61q-10 7 -22 14l3 22q74 -2 124 3l-5 -28q-37 -25 -30 -54q10 -42 19 -84.5t18 -84.5q14 45 28 91.5t26 92.5q6 37 -22 66l-12 11l30 9q46 -26 94 -36l-4 -25q-21 -12 -27 -15.5t-10 -22.5q-12 -42 -23 -83t-20 -83
q-5 -18 -7 -37t-8 -37q-4 -12 1.5 -25t6.5 -25q0 -7 -5 -13q-44 4 -96 -6v31q11 3 17 10q3 7 -2 40z" />
    <glyph glyph-name="w" unicode="w" horiz-adv-x="389" 
d="M147 803l11 -3.5t36 -8.5q24 -6 38.5 -7l14.5 -1l-1 -17l-12 -3t-15 -16q-3 -14 -2.5 -19.5l0.5 -5.5l10 -100t19 -160q9 63 25 178.5t18 125.5q1 12 -0.5 16l-1.5 4l-19 22l3 14l11.5 1.5t35.5 9.5t35 12.5l11 4.5l9 -5l-10 -8t-16 -18q-20 -28 -27 -55
q-4 -15 -14 -110.5l-10 -95.5q-3 -64 -16 -150l1.5 -12t12.5 -22q9 -12 13 -12.5l4 -0.5l-1 -10l-5 1v-5l-22 0.5t-46 0.5q-25 0 -42.5 -1l-17.5 -1l1 15l11.5 10.5t17.5 27.5q5 17 6.5 21l1.5 4l-8 84.5t-10 90.5t-2 7.5v1.5l-37 -72.5t-38 -82.5q-3 -11 -1 -20l2 -10
t17 -21q13 -12 17.5 -13l4.5 -1l1 -9l-121 3l-2 15l12 6t16 23q3 16 2 23.5l-1 7.5l-14.5 119t-15.5 133q-3 13 -5 17l-2 4l-27 23v15l11 2t35 11q24 8 34.5 13l10.5 5l12 -6l-8.5 -8t-13.5 -19q-12 -32 -12 -60q-1 -15 12.5 -98l13.5 -83q16 30 26 47t27 47q29 51 19 95
l-10 44l-6.5 12.5t-7.5 20.5q-3 7 -1 9.5z" />
    <glyph glyph-name="x" unicode="x" horiz-adv-x="337" 
d="M236 388q-11 21 -33.5 72t-36.5 93q-27 -75 -70 -165l-2 -12.5t7 -20.5q10 -10 14 -8.5t-1 -10.5l-127 -9q-10 14 -7 17q7 10 22.5 15.5t27.5 23.5l31 71t66 146q-20 46 -46.5 109.5t-32.5 72.5q-7 7 -19 7.5t-17 18.5l-6 18l116 4l9 -17l-16 -18v-5.5t4 -14.5
q4 -10 18 -38t38 -79q23 51 36 79t16 34q7 17 -5 28l13 26l13.5 -3t46.5 12q27 13 54 6l-13 -21l-68 -34q-15 -8 -35 -66t-39 -104q34 -75 66 -148l32 -73l3.5 -8t17.5 -26q13 -19 24 -18l11 1l-10 -16l-120 9l-5 10h4.5t13.5 9q9 8 12 10t-7 23z" />
    <glyph glyph-name="y" unicode="y" horiz-adv-x="220" 
d="M202 761q8 18 5.5 19.5t-10.5 9.5q-8 6 -11.5 6.5l-3.5 0.5l4 9l103 7l8 -14l-10.5 -2.5t-19.5 -11.5t-13 -19l-4 -10l-83 -187l-17 -36q-20 -44 -33 -69.5t-16 -33.5q-3 -9 -3.5 -13l-0.5 -4l14 -15l-5 -11l-99 3l3 12q22 13 31 23q6 6 28.5 61.5t39.5 95.5
q-29 63 -55.5 123.5l-26.5 60.5q-10 14 -23 19t-19 14q-2 2 6 14l107 -7q1 -5 -11 -16q-8 -8 -6 -18.5l2 -10.5q38 -82 59 -139q12 34 31.5 77.5t28.5 61.5z" />
    <glyph glyph-name="z" unicode="z" horiz-adv-x="340" 
d="M59 718l-57 77l27 3t51 6q24 2 57 -6.5t52 -14.5q19 -8 90 -28t92 -12q21 7 28 24.5l7 17.5l19 -6l-12.5 -26t-24.5 -32q-13 -6 -27.5 -11t-32.5 -28q-9 -12 -36 -60t-56 -101t-51 -95l-22 -42l-9 -13.5t0 -24.5q7 -10 40 -18t47 -12q19 -7 76 -26t73 -13q16 5 25.5 23.5
l9.5 18.5h10l-10 -25t-28 -33q-44 -18 -158 17q-89 26 -111 15q-18 -9 -39 -22l-21 -13l-47 70l2.5 4.5t14.5 8.5q15 4 46 48q48 64 99 157t76 169q2 6 2 8q-35 7 -63 15q-89 26 -112 15q-18 -9 -22.5 -22zM21 328z" />
    <glyph glyph-name="period" unicode="." horiz-adv-x="255" 
d="M34 342q28 -1 58 -13l9 -41l-13 -9l-41 -9l-9 14l-9 45z" />
    <glyph glyph-name="comma" unicode="," horiz-adv-x="241" 
d="M55 376q47 -7 50 -60l-40 -66l-36 6q3 26 15 55l-15 25z" />
    <glyph glyph-name="colon" unicode=":" horiz-adv-x="282" 
d="M26 500h39l22 -13q3 -15 4 -35l-4 -8l-9 -13l-17 -8q-14 6 -30 17l-9 42zM48 355q22 -12 43 -30q-7 -27 -26 -47q-28 3 -43 29q1 29 26 48z" />
    <glyph glyph-name="semicolon" unicode=";" horiz-adv-x="282" 
d="M42 555h43l17 -17q-1 -26 -13 -52l-17 -9q-15 8 -30 21l-9 44zM63 394q32 -18 39 -56q-14 -28 -39 -61l-30 4q4 27 13 57q-9 11 -13 26z" />
    <glyph glyph-name="question" unicode="?" horiz-adv-x="373" 
d="M115 832q52 6 106 -20q63 -30 76 -110q-11 -69 -19.5 -95t-152.5 -154q-43 -25 -55 2l100 102q61 62 62 114t-16 70.5t-85 35.5q-80 16 -146 -31l6 31q39 52 124 55zM105 401q26 -27 65 -55l-50 -60q-33 17 -70 50z" />
    <glyph glyph-name="exclam" unicode="!" horiz-adv-x="296" 
d="M60 743q0 60 -27 87l106 10q-20 -43 -17 -100l-12 -270h-45zM79 423q39 -15 72 -55l-49 -72q-41 21 -72 56q21 37 49 71z" />
    <glyph glyph-name="quotedbl" unicode="&#x22;" horiz-adv-x="252" 
d="M64 822q32 -20 40 -58q-16 -28 -40 -62l-32 4q4 27 13 58q-9 12 -13 27zM166 822q33 -20 40 -58q-15 -28 -40 -62l-31 4q4 27 14 58q-10 12 -14 27z" />
    <glyph glyph-name="quotesingle" unicode="'" horiz-adv-x="154" 
d="M75 809q51 -31 64 -92q-25 -46 -64 -100l-50 7q6 43 21 93q-15 18 -21 42z" />
    <glyph glyph-name="Adieresis" unicode="&#xc4;" horiz-adv-x="568" 
d="M438 858l19 -50h-12.5t-39.5 4q2 -34 8.5 -90.5t16.5 -152.5q25 15 37 32q33 51 38.5 92l5.5 41l25 -9l-3 -73t-19 -93q-17 -21 -34 -27t-44 -18q8 -82 15 -155t20 -116q12 -45 42.5 -61t96.5 -49t103.5 5t35.5 49q-3 9 13.5 -12.5l16.5 -21.5l-1 1.5t-26 -28.5
q-26 -31 -64 -37.5t-91 -6.5q-54 0 -78.5 26.5t-49.5 34.5q-26 8 -77.5 7.5l-51.5 -0.5l-3 24l23 12.5t31 38.5q7 25 4.5 91t-7.5 132q-1 1 -5 43q-75 -32 -95 -46q-28 -21 -43 -41q-7 -50 -11 -81t-2 -64q2 -35 27 -50.5l25 -15.5l-4 -24l-13 10t-68 21q-56 9 -110.5 16.5
l-54.5 7.5l14 29l43 1t65 30q19 25 34 98.5t29 147.5q21 108 18.5 197.5t-3.5 132.5q-7 0 -3 0.5t-22 0.5q-26 -2 -57 -26.5l-31 -24.5l-13 61l5 3.5t64 32.5q58 27 70.5 13.5t81.5 -51.5q68 -38 88.5 -24.5zM259 513q56 9 117 29q-12 82 -26 160.5l-14 78.5h-21l-4.5 -16
t-13.5 -46q-10 -30 -19 -83.5t-19 -122.5zM107 952l4 72l27 38q27 4 64 4l15 -9l23 -18l14 -33q-13 -25 -35 -53l-81 -11zM380 975q24 39 61 76q49 -16 84 -54q-10 -52 -61 -76q-52 5 -84 54z" />
    <glyph glyph-name="Odieresis" unicode="&#xd6;" horiz-adv-x="500" 
d="M229 941q18 5 30 0q5 -3 76 -47t92 -117q21 -75 35.5 -191.5t-11.5 -192.5q-27 -77 -73 -143t-96 -80q-22 -8 -40 -12q-19 4 -40 12q-51 14 -96.5 80t-72.5 143q-26 76 -11.5 192.5t35.5 191.5q20 73 93.5 117t78.5 47zM210 213q32 -2 64 0q36 3 64 69.5t48 160.5
q20 93 -1 158t-36 135q-16 69 -59 109l-43 40q-6 3 -10 0l-43.5 -40t-58.5 -109q-16 -70 -37 -135t-1 -158q20 -94 54.5 -161t58.5 -69zM59 941l4 72l27 39q27 4 64 4l16 -9l22 -18l14 -33q-13 -25 -35 -54l-81 -11zM332 964q24 40 61 77q49 -17 84 -54q-10 -52 -61 -76
q-52 5 -84 53z" />
    <glyph glyph-name="Udieresis" unicode="&#xdc;" horiz-adv-x="484" 
d="M184 789v-38l-16 -5t-31 -20q-16 -17 -19 -194t15 -270q18 -94 108.5 -110.5t108.5 93.5q16 109 9 295t-10 215t-31 36l-28 7l-9 38l14 -3.5t59 -0.5q44 3 73 20.5l29 17.5l5 -38l-13.5 -11.5t-25.5 -39.5q-7 -15 -7.5 -106t0 -198.5t-0.5 -200.5t-9 -112
q-16 -39 -62 -72t-86 -34q-40 -2 -105.5 38t-80.5 76q-8 17 -12 91.5t-6.5 162t-5 166t-6.5 104.5q-9 51 -31.5 51h-22.5v47l16.5 -2t67.5 -11q51 -10 82 -1zM18 890l4 72l27 38q27 5 64 4l15 -9l23 -17l14 -33q-13 -25 -35 -54l-81 -11zM291 913q24 39 61 76q49 -16 84 -53
q-10 -53 -61 -77q-52 6 -84 54z" />
    <glyph glyph-name="adieresis" unicode="&#xe4;" horiz-adv-x="398" 
d="M286 813l11 -41h-8t-25 3q2 -21 6.5 -75.5t11.5 -114.5q16 9 22 20q21 31 24.5 57l3.5 26l16 -6l0.5 -42.5t-14.5 -60.5q-12 -13 -49 -29q12 -118 20 -149q18 -67 89 -102q41 -21 64.5 3.5t22.5 30.5q-2 6 8 -7.5l10 -13.5l-0.5 0.5t-15.5 -17.5q-24 -28 -97 -28
q-34 0 -61.5 19.5t-42.5 25.5q-16 4 -48 4h-32l-2 15l14 7.5t20 24.5q4 15 2.5 56t-4.5 83q-2 9 -3 26q-41 -15 -60 -28q-16 -12 -27 -26q-8 -64 -8 -91q1 -32 16.5 -36l15.5 -4l-2 -23l-8 6.5t-43 13.5q-35 6 -78 13.5l-43 7.5l8 25l18.5 2t32.5 20q12 15 24 60.5t23 90.5
q16 66 16.5 148t-0.5 109q-6 1 -16 1q-29 -2 -41.5 -17l-12.5 -15l-9 38l4 7t41 25q36 17 44 8.5t50 -32.5q43 -24 77.5 -21zM151 542l32.5 7.5t40.5 11.5q-8 51 -17 105l-9 54h-13l-1.5 -12t-9.5 -37q-4 -12 -10.5 -49t-12.5 -80zM29 896l3 53l20 29q20 3 48 3l11 -7
l17 -13l11 -24q-10 -19 -27 -40l-60 -9zM232 913q18 29 45 57q37 -12 63 -40q-7 -39 -45 -57q-39 4 -63 40z" />
    <glyph glyph-name="odieresis" unicode="&#xf6;" horiz-adv-x="330" 
d="M158 823q11 2 19 0q3 -3 48.5 -31t59.5 -75q13 -48 22.5 -123t-7.5 -123q-18 -49 -47 -91.5t-61 -51.5q-11 -4 -26 -7q-16 4 -25 7q-33 9 -62.5 51.5t-45.5 91.5q-18 48 -8.5 123t23.5 123q12 47 59.5 75.5t50.5 30.5zM152 375q13 -2 29 0q15 1 28 40.5t22 96.5
q9 55 -0.5 93.5t-16.5 80.5q-7 41 -26 65l-19 24q-4 1 -5 0l-19.5 -24t-25.5 -65q-8 -42 -17 -80.5t0 -93.5q9 -57 21 -96.5t29 -40.5zM22 834l3 54l20 28q20 4 48 3l12 -6l17 -13l10 -25q-10 -19 -26 -40l-61 -8zM225 851q18 30 46 57q36 -12 63 -40q-8 -39 -46 -56
q-39 4 -63 39z" />
    <glyph glyph-name="udieresis" unicode="&#xfc;" horiz-adv-x="242" 
d="M99 742v-19l-8 -2.5t-15 -10.5q-9 -8 -9 -101.5t7 -125.5q6 -33 37 -39t42 30t6.5 136t-6.5 115q-2 14 -15.5 17.5l-13.5 3.5l-4 19l6.5 -2.5t29.5 -0.5q21 2 46 10.5l25 8.5l2 -19l-6.5 -5.5t-12.5 -19.5q-7 -14 -4 -149.5t-5 -153.5q-8 -19 -34 -30.5t-45 -11.5
q-21 -1 -54 14t-40 33q-9 17 -10 124t-5 133q-5 24 -15.5 24.5l-10.5 0.5v23l8 -1t33 -6q24 -5 47.5 0zM-5 804l3 40l14 21q15 3 35 2l9 -5l12 -9l8 -18q-7 -14 -19 -30l-45 -6zM145 817q13 22 34 42q27 -9 46 -29q-6 -29 -33 -42q-29 2 -47 29z" />
    <glyph glyph-name="germandbls" unicode="&#xdf;" horiz-adv-x="391" 
d="M177.5 864q55.5 -3 97.5 -15q41 -13 47.5 -43.5t3.5 -53.5q-3 -24 -27 -50.5l-24 -26.5l13.5 -1.5t37.5 -21.5q24 -21 27 -61t-1 -79q-6 -40 -40 -77.5t-69 -62.5q-66 -23 -23.5 21.5t60.5 73.5q17 28 4 85.5t-30 75.5q-15 14 -66 6l-1 -417l1.5 -2t-12.5 -19
q-15 -18 -46.5 -32.5l-31.5 -14.5l-15 11l1.5 0.5t10.5 5.5q14 6 24 47q2 8 5.5 177.5t1.5 227.5q-15 -6 -25 -11q-22 -13 -19.5 -24.5l2.5 -11.5l-32 -4v8.5v21.5q0 12 4.5 20t38.5 24q18 9 28 13q-3 50 -2 131.5t56.5 78.5zM185 681q25 10 58 22q19 6 18 40t-26 68
q-16 20 -33.5 18.5t-23.5 -1.5z" />
  </font>
</defs>
</svg>
